<?xml version="1.0" standalone="no"?>
<!DOCTYPE svg PUBLIC "-//W3C//DTD SVG 1.1//EN" "http://www.w3.org/Graphics/SVG/1.1/DTD/svg11.dtd" >
<svg xmlns="http://www.w3.org/2000/svg">
<metadata>
This is a custom SVG font generated by IcoMoon.
<iconset grid="24"></iconset>
</metadata>
<defs>
<font id="subicons" horiz-adv-x="768" >
<font-face units-per-em="768" ascent="736" descent="-32" />
<missing-glyph horiz-adv-x="768" />
<glyph class="hidden" unicode="&#xf000;" d="M0,736L 768 -32L0 -32 z" horiz-adv-x="0" />
<glyph unicode="&#xe01f;" d="M 591.896,345.464C 588.5,233.775, 496.848,144, 384,144c-114.76,0-208,92.945-208,208
				c0,18.208, 2.312,36.056, 6.888,53.336l 14.448,0 l 26.664-40L 184,352l 53.336-80L 264,272 l 26.664-37.048l0-16.288 l 26.672-40L 344,178.664 L 317.336,232l 13.328,26.664
				l0,66.672 l-40,53.328L 264,365.336L 250.664,392L 304,418.664l-13.336,40l 40,26.672l-53.328,0 L 264,498.664l 22.176,36.96
				C 315.466,551.273, 348.747,560, 384,560c 1.368,0, 2.728-0.016, 4.088-0.040L 424,512l-53.336-26.664l 40-26.672L 384,445.336l 13.336-40l 13.328,0 
				L 424,432l 39.608,0 l 13.728-13.336L 504,418.664 L 477.336,392l-80,0 l-26.672-26.664l0-26.672 L 397.336,312L 424,312 l0-53.336 l 26.664-40L 464,218.664 L 490.664,272l0,40 l 39.92,40
				L 504,365.336l 40,40L 591.896,345.464z" data-tags="web-resource_fg" />
<glyph unicode="&#xe01e;" d="M 384,592c-132.552,0-240-107.448-240-240s 107.448-240, 240-240s 240,107.448, 240,240S 516.552,592, 384,592z
				 M 384,144c-114.76,0-208,92.945-208,208c0,18.208, 2.312,36.056, 6.888,53.336l 14.448,0 l 26.664-40L 184,352l 53.336-80L 264,272 l 26.664-37.048l0-16.288 
				l 26.672-40L 344,178.664 L 317.336,232l 13.328,26.664l0,66.672 l-40,53.328L 264,365.336L 250.664,392L 304,418.664l-13.336,40l 40,26.672l-53.328,0 L 264,498.664
				l 22.176,36.96C 315.466,551.273, 348.747,560, 384,560c 1.368,0, 2.728-0.016, 4.088-0.040L 424,512l-53.336-26.664l 40-26.672L 384,445.336l 13.336-40
				l 13.328,0 L 424,432l 39.608,0 l 13.728-13.336L 504,418.664 L 477.336,392l-80,0 l-26.672-26.664l0-26.672 L 397.336,312L 424,312 l0-53.336 l 26.664-40L 464,218.664 L 490.664,272l0,40 
				l 39.92,40L 504,365.336l 40,40l 47.896-59.872C 588.5,233.775, 496.848,144, 384,144z" data-tags="web-resource_bg" />
<glyph unicode="&#xe011;" d="M 420.92,475.080c-11.552-11.552-30.288-11.552-41.84,0s-11.552,30.288,0,41.84c 11.552,11.551, 30.288,11.551, 41.84,0
				C 432.472,505.368, 432.472,486.632, 420.92,475.080z M 243.192,547.192c-15.016,15.024-39.368,15.024-54.384,0
				c-15.024-15.017-15.024-39.368,0-54.385c 15.016-15.023, 39.368-15.023, 54.384,0C 258.216,507.824, 258.216,532.175, 243.192,547.192z M 144,384
				l0-160 l 336,0 L 480,384 L 144,384 z" data-tags="video_fg" />
<glyph unicode="&#xe010;" d="M 512,353.775L 512,416 L 400,416 c 20.472,0, 40.944,7.808, 56.568,23.432c 31.24,31.24, 31.24,81.896,0,113.136
				c-31.24,31.24-81.896,31.24-113.136,0c-13.176-13.177-21.572-29.713-23.636-46.888c 4.272,31.128-6.324,63.928-30.26,87.856
				c-40.608,40.616-106.464,40.616-147.072,0c-40.616-40.608-40.616-106.464,0-147.072C 162.768,426.16, 189.384,416, 216,416L 112,416 l0-224 l 400,0 l0,62.224 
				L 656,192L 656,416 L 512,353.775z M 379.080,516.92c 11.552,11.551, 30.288,11.551, 41.84,0c 11.552-11.552, 11.552-30.288,0-41.84s-30.288-11.552-41.84,0
				S 367.528,505.368, 379.080,516.92z M 188.808,492.807c-15.024,15.017-15.024,39.368,0,54.385c 15.016,15.024, 39.368,15.024, 54.384,0
				c 15.024-15.017, 15.024-39.368,0-54.385C 228.176,477.784, 203.824,477.784, 188.808,492.807z M 480,224L 144,224 L 144,384 l 336,0 L 480,224 z" data-tags="video_bg" />
<glyph unicode="&#xe023;" d="M 464,464L 464,544 L 224,544 l0-384 l 320,0 L 544,464 L 464,464 z M 400,240l-32,0 l0,32 l 32,0 L 400,240 z M 432.128,340.368
				c-6.24-7.065-16.36-15.161-31.632-18.64L 400.496,304 l-32,0 l0,48 l 16,0 c 14.544,0, 31.528,8.352, 31.528,31.888c0,8.56-2.904,16.744-7.968,22.456
				C 402.376,412.752, 394.28,416, 384,416c-20.040,0-32-11.961-32-32l-32,0 c0,37.679, 26.32,64, 64,64c 13.64,0, 33.032-3.545, 48-20.425
				c 10.336-11.655, 16.024-27.167, 16.024-43.687C 448.023,367.44, 442.376,351.984, 432.128,340.368z" data-tags="unknown_fg" />
<glyph unicode="&#xe022;" d="M 480,576L 192,576 l0-448 l 384,0 L 576,480 L 480,576z M 544,160L 224,160 L 224,544 l 240,0 l0-80 l 80,0 L 544,160 z M 400,272l0-32 l-32,0 l0,32 L 400,272 z
				 M 448.023,383.888c0-16.448-5.648-31.904-15.896-43.52c-6.24-7.065-16.36-15.161-31.632-18.64L 400.495,304 l-32,0 l0,48 l 16,0 
				c 14.544,0, 31.528,8.352, 31.528,31.888c0,8.56-2.904,16.744-7.968,22.456C 402.376,412.752, 394.28,416, 384,416c-20.040,0-32-11.961-32-32l-32,0 
				c0,37.679, 26.32,64, 64,64c 13.64,0, 33.032-3.545, 48-20.425C 442.335,415.92, 448.023,400.407, 448.023,383.888z" data-tags="unknown_bg" />
<glyph unicode="&#xe055;" d="M 320,528c-61.892,0-112-50.085-112-112c0-61.89, 50.085-112, 112-112c 61.893,0, 112,50.085, 112,112
				C 432,477.89, 381.915,528, 320,528z M 320,336l0,32 c 26.467,0, 80,21.533, 80,48C 400,371.818, 364.183,336, 320,336z" data-tags="ui-loupe_fg" />
<glyph unicode="&#xe054;" d="M 560,224L 436.812,331.79C 453.915,355.471, 464,384.556, 464,416c0,79.528-64.471,144-144,144
				c-79.53,0-144-64.472-144-144c0-79.529, 64.47-144, 144-144c 31.444,0, 60.529,10.085, 84.21,27.188L 512,176L 560,224z M 320,304
				c-61.897,0-112,50.092-112,112c0,61.896, 50.092,112, 112,112c 61.896,0, 112-50.092, 112-112C 432,354.102, 381.908,304, 320,304z
				 M 320,336l0,32 c 26.467,0, 80,21.533, 80,48l0,0C 400,371.818, 364.183,336, 320,336z" data-tags="ui-loupe_bg" />
<glyph unicode="&#xe051;" d="M 448,352l 94.312-161.688l-42.568-42.568L 304,352l 195.744,204.256l 42.568-42.568L 448,352z M 274.72,461.28L 240,496
				L 96,352l 144-144l 34.72,34.72L 208,352L 274.72,461.28z" data-tags="ui-arrow-prev-page" />
<glyph unicode="&#xe053;" d="M 225.688,513.688l 42.568,42.568L 464,352L 268.256,147.744l-42.568,42.568L 320,352L 225.688,513.688z M 560,352
				l-66.72-109.28L 528,208l 144,144L 528,496l-34.72-34.72L 560,352z" data-tags="ui-arrow-next-page" />
<glyph unicode="&#xe052;" d="M 289.688,513.688L 332.256,556.256L 528,352L 332.256,147.744L 289.688,190.312L 384,352 			z" data-tags="ui-arrow-go-to-result" />
<glyph unicode="&#xe00d;" d="M 432,272l0-80 l 192,0 L 624,272 L 432,272 z M 224,272l0-80 l 192,0 L 416,272 L 224,272 z M 432,464l0-80 l 192,0 L 624,464 L 432,464 z M 224,368l0-80 l 192,0 L 416,368 
				L 224,368 z M 224,464l0-80 l 192,0 L 416,464 L 224,464 z M 432,368l0-80 l 192,0 L 624,368 L 432,368 z" data-tags="research-data_fg" />
<glyph unicode="&#xe00c;" d="M 128,528l0-352 l 512,0 L 640,528 L 128,528 z M 416,192L 224,192 L 224,272 l 192,0 L 416,192 z M 416,288L 224,288 L 224,368 l 192,0 L 416,288 z M 416,384L 224,384 L 224,464 l 192,0 
				L 416,384 z M 624,192L 432,192 L 432,272 l 192,0 L 624,192 z M 624,288L 432,288 L 432,368 l 192,0 L 624,288 z M 624,384L 432,384 L 432,464 l 192,0 L 624,384 z" data-tags="research-data_bg" />
<glyph unicode="&#xe009;" d="M 209.671,545.896L 175.416,192l 450.904,0 l 38.976,298.087L 209.671,545.896z M 233.832,463.56l 6.984,15.295
				l 10.968-0.951l 21.256,46.488l 24.408-2.721l 15.632-96.823l-16.448,1.287l-5.232,32.408l-30.152,2.624l-14.216-31.161l-16.528,1.296
				l 14.288,31.297L 233.832,463.56z M 367.464,223.719l-156.712,3.52l 10.928,112.88l 156.888-8.8L 367.464,223.719z M 529.759,220.064l-129.992,2.928
				L 403.2,258.4l 130.976-4.305L 529.759,220.064z M 596.896,218.56l-33.552,0.751l 4.368,33.649l 33.536-1.128L 596.896,218.56z M 605.592,285.104
				l-198.632,8.912l 3.432,35.528L 410.4,329.6l 199.544-11.232L 605.592,285.104z M 614.296,351.632l-388.976,26.119l 3.648,37.624l 389.672-30.497
				L 614.296,351.632z M 622.935,418.264L 466.080,430.535l 7.448,56.384l 156.168-17.416L 622.935,418.264z M 343.288,301.248l-4.624-44.873
				l-92.736,2.081l 4.64,47.993L 343.288,301.248z M 288.8,474.68l-20.568,1.791l 13.984,30.593l 1.376-0.12L 288.8,474.68z" data-tags="newspaper_fg" />
<glyph unicode="&#xe008;" d="M 250.571,306.45l 92.72-5.201l-4.626-44.874l-92.738,2.083L 250.571,306.45 M 221.68,340.119l-10.928-112.88
				l 156.712-3.52l 11.104,107.6L 221.68,340.119L 221.68,340.119z M 619.919,527.888l-4.336,46.296l-137.528-28.921l-297.072,36.384L 171.216,480.736
				L 64,458.192L 140.167,160l 514.24,0 l 46.8,357.928L 619.919,527.888z M 626.319,192L 175.416,192 l 34.256,353.896l 455.624-55.809L 626.319,192z
				 M 567.711,252.96l-4.368-33.649l 33.552-0.751l 4.352,33.272L 567.711,252.96z M 228.967,415.376l-3.648-37.624l 388.976-26.119l 4.344,33.247
				L 228.967,415.376z M 410.4,329.6l-0.008-0.056l-3.432-35.528l 198.632-8.912l 4.352,33.264L 410.4,329.6z M 403.2,258.4l-3.432-35.408l 129.992-2.928
				l 4.416,34.032L 403.2,258.4z M 297.448,521.671l-24.408,2.721l-21.256-46.488l-10.968,0.951l-6.984-15.295l 10.96-0.96l-14.288-31.297l 16.528-1.296
				l 14.216,31.161l 30.152-2.624l 5.232-32.408l 16.448-1.287L 297.448,521.671z M 268.232,476.471l 13.984,30.593l 1.376-0.12l 5.208-32.264
				L 268.232,476.471z M 473.527,486.919l-7.448-56.384l 156.856-12.271l 6.76,51.24L 473.527,486.919z" data-tags="newspaper_bg" />
<glyph unicode="&#xe015;" d="M 576,480l 96,0 l0-64 l-48,0 l0-32 l 48,0 l0-64 l-64,0 l0-32 l 64,0 l0-64 L 512,224 l0-32 L 400,192 L 400,448 l 80-80l-48-96l 112,32c0,0.832,0,144,0,144
				s-29.306,29.306-64,64l 96,0 L 576,480 z M 264.531,192c 11.036,19.151, 31.69,32, 55.469,32c 19.2,0, 36.232-8.432, 48-21.792L 368,512 l-64,0 l0-32 L 160,480 l0-64 
				l 144,0 l0-32 L 160,384 l0-64 l 144,0 l0-32 L 160,288 l0-64 l 64,0 l0-32 L 264.531,192 z" data-tags="music_fg" />
<glyph unicode="&#xe014;" d="M 304,480l0,32 L 96,512 l0-320 l 128,0 l0,32 l-64,0 l0,64 l 144,0 l0,32 L 160,320 l0,64 l 144,0 l0,32 L 160,416 l0,64 L 304,480 z M 624,416l0-32 l 48,0 l0,32 L 624,416 z
				 M 576,512l0-32 l 96,0 l0,32 L 576,512 z M 512,224l0-32 l 160,0 l0,32 L 512,224 z M 608,320l0-32 l 64,0 l0,32 L 608,320 z M 432,272l 48,96L 400,448l0-272 
				c0-45.406-37.175-80-80-80c-35.456,0-64,28.544-64,64s 28.544,64, 64,64c 19.2,0, 36.232-8.432, 48-21.792L 368,624 c 0.808-0.808, 176-176, 176-176
				s0-143.168,0-144L 432,272z" data-tags="music_bg" />
<glyph unicode="&#xe003;" d="M 502.476,418.854l-15.492-4l-16,61.968l 15.492,4L 502.476,418.854z M 517.46,488.822l-15.492-4l 16-61.968
				l 15.492,4L 517.46,488.822z M 548.444,496.822l-15.492-4l 16-61.968l 15.492,4L 548.444,496.822z M 532.444,558.79l-77.459-20
				l 8-30.983l 77.459,20L 532.444,558.79z M 572.444,403.871l-77.459-20l 56-216.887l 77.46,20L 572.444,403.871z M 320,480l0-64 l 16,0 l0,64 
				L 320,480 z M 352,480l0-64 l 16,0 l0,64 L 352,480 z M 304,544l0-32 l 80,0 l0,32 L 304,544 z M 304,384l0-224 l 80,0 L 384,384 L 304,384 z M 224,480l0-64 l 16,0 l0,64 L 224,480 z M 192,544l0-32 l 80,0 l0,32 
				L 192,544 z M 192,384l0-224 l 80,0 L 272,384 L 192,384 z" data-tags="multivolume-work_fg" />
<glyph unicode="&#xe002;" d="M 532.443,558.79l 8-30.983l-15.492-4l-30.984-8l0,0 l-30.984-8l0,0 l0,0 l-8,30.983L 532.443,558.79
				L 532.443,558.79z M 572.444,403.87L 572.444,403.87l 55.999-216.886l-77.459-20l-56,216.886l 15.492,4l 30.984,8l0,0 L 572.444,403.87
				L 572.444,403.87z M 555.427,597.774l-139.427-36L 528,128l 139.427,36L 555.427,597.774L 555.427,597.774z M 548.951,430.854
				l-16,61.968l 15.492,4l 16-61.968L 548.951,430.854L 548.951,430.854z M 517.968,422.854l-16,61.968l 15.492,4l 16-61.968L 517.968,422.854
				L 517.968,422.854z M 486.983,414.854l-16,61.968l 15.492,4l 16-61.968L 486.983,414.854L 486.983,414.854z M 160,576l0-448 l 256,0 L 416,576 L 160,576 z
				 M 272,160L 192,160 L 192,384 l 80,0 L 272,160 z M 224,416l0,64 l 16,0 l0-64 L 224,416 z M 272,512L 192,512 l0,32 l 80,0 L 272,512 z M 384,160L 304,160 L 304,384 l 80,0 L 384,160 z M 320,416l0,64 l 16,0 l0-64 
				L 320,416 z M 352,416l0,64 l 16,0 l0-64 L 352,416 z M 384,512L 304,512 l0,32 l 80,0 L 384,512 z" data-tags="multivolume-work_bg" />
<glyph unicode="&#xe021;" d="M 480,368l0-208 L 224,160 L 224,464 l 160,0 l0-96 L 480,368 z M 448,448l 96-96L 544,448 L 448,448 z M 288,544l0-48 l 112,0 l 48-48L 448,544 L 288,544 z" data-tags="multiple-mediatypes_fg" />
<glyph unicode="&#xe020;" d="M 464,576L 256,576 l0-80 l-64,0 l0-368 l 320,0 L 512,208 l 64,0 L 576,464 L 464,576z M 480,160L 224,160 L 224,464 l 160,0 l0-96 l 96,0 L 480,160 z M 544,352L 400,496
				L 288,496 l0,48 l 160,0 l0-96 l 96,0 L 544,352 z" data-tags="multiple-mediatypes_bg" />
<glyph unicode="&#xe01b;" d="M 383.96,512c-96.496,0-171.584-23.472-254.488-67.92l 0.040-173.248c 88.72,42.68, 167.472,59.32, 254.488,59.32
				c 78.496,0, 179.736-11.248, 210.6-59.304c 9.984-15.552, 15.656-34.96, 7.736-59.096c 24.712,20.416, 37.664,51.576, 37.664,85.6L 640,374.96 
				C 640,485.68, 494.232,512, 383.96,512z M 272,352.224c-32.32-6.024-63.992-14.865-96-26.76L 176,432 c 32.864,15.584, 64.32,26.824, 96,34.68L 272,352.224 z
				 M 432,360.72c-14.488,0.896-30.48,1.432-48,1.432c-16.344,0-32.312-0.568-48-1.713L 336,477.648 c 16.136,1.584, 32.544,2.352, 49.512,2.352
				c 15.968,0, 31.544-0.576, 46.488-1.696L 432,360.72 z M 592,318.12c-19.6,13.752-45.6,24.336-77.776,31.616c-5.272,1.192-11.352,2.432-18.224,3.648L 496,469.36 
				c 17.376-3.744, 33.096-8.432, 46.784-14c 21.592-8.784, 38.152-19.64, 49.216-32.28L 592,318.12 z" data-tags="microfiche_fg" />
<glyph unicode="&#xe01a;" d="M 384,544c-113.2,0-199.144-30.016-288-80l0-245.846 c 95.536,53.075, 179.21,80, 288,80L 384,160 l 144,0 
				c 96,0, 144,66.566, 144,137.354L 672,374.96 C 672,507.575, 515.984,544, 384,544z M 602.336,211.754c 7.919,24.133, 2.25,43.543-7.74,59.098
				c-30.858,48.050-132.096,59.302-210.596,59.302c-87.016,0-165.768-16.64-254.488-59.319L 129.472,444.080
				C 212.376,488.528, 287.464,512, 383.96,512C 494.232,512, 640,485.68, 640,374.96l0-77.606 C 640,263.33, 627.047,232.168, 602.336,211.754z
				 M 272,352.221c-32.317-6.021-63.993-14.862-96-26.758L 176,432 c 32.866,15.582, 64.321,26.822, 96,34.68L 272,352.221 z M 432,360.723
				c-14.49,0.894-30.48,1.43-48,1.43c-16.347,0-32.311-0.571-48-1.717L 336,477.65 c 16.133,1.58, 32.542,2.35, 49.512,2.35
				c 15.967,0, 31.545-0.578, 46.488-1.698L 432,360.723 z M 592,318.119c-19.599,13.751-45.6,24.333-77.774,31.613
				c-5.274,1.194-11.352,2.435-18.226,3.651L 496,469.362 c 17.374-3.746, 33.095-8.434, 46.788-14.003
				c 21.585-8.779, 38.152-19.638, 49.212-32.278L 592,318.119 z" data-tags="microfiche_bg" />
<glyph unicode="&#xe00f;" d="M 464,160l 176,0 L 640,480 L 464,480 L 464,160 z M 608,224l-32-32l0,32 l-32,0 l0,16 l 32,32l 16,0 l0-16 l 16,16L 608,224 z M 480,432l 64,0 l 16,16l 16,0 
				l 16-16l 16,0 l 16-16l-16-16l-16,16l-16-16l 16-16l-32-32l 16-48l-16-16l-32,32l0-32 l-32,0 l-16,16L 480,432 z M 336,536l 96-48l0-64 l-32,32l-32-16
				l 32-16l0-16 l-32,16l-16-8l0-32 l 16-8l 32,0 l 32-48l0-32 l-32,48l-48,24l0-48 l 16-8l0-32 l 16-40l 16-8l 16,40l0,16 l 16,8l0-128 l-96,48L 336,536 z M 128,224
				l 176,0 L 304,496 l-16-16l-16,0 l-16,32l0,16 l 48,0 l0,16 L 128,544 L 128,224 z M 144,512l 16,16l 16-16l 32,0 l 16-16l 16,0 l 16-16l-32-16l 16-16l 16,16l 16,0 l 16-16l-32-16
				l-16-32l-32,0 l0-32 l 31.504,0 L 256,352l 32,0 l0-32 l-32-16l0-64 l-32,32l0,48 l-16,16l0,32 l-48,48l0,16 l 16,16l-16,32l-16,0 L 144,512 z" data-tags="map_fg" />
<glyph unicode="&#xe00e;" d="M 455.552,512l-128,64L 96,576 l0-384 l 216.448,0 l 128-64L 672,128 L 672,512 L 455.552,512 z M 304,528l-48,0 l0-16 l 16-32l 16,0 l 16,16l0-272 L 128,224 L 128,544 
				l 176,0 L 304,528 z M 432,424l-32,32l-32-16l 32-16l0-16 l-32,16l-16-8l0-32 l 16-8l 32,0 l 32-48l0-160 l-96,48L 336,536 l 96-48L 432,424 z M 640,160L 464,160 L 464,480 l 176,0 
				L 640,160 z M 608,272l0-48 l-32-32l0,32 l-32,0 l0,16 l 32,32l 16,0 l0-16 L 608,272z M 624,416l-16-16l-16,16l-16-16l 16-16l-32-32l 16-48l-16-16l-32,32l0-32 
				l-32,0 l-16,16L 480,432 l 64,0 l 16,16l 16,0 l 16-16l 16,0 L 624,416z M 432,296l-16-8l0-16 l-16-40l-16,8l-16,40l0,32 l-16,8l0,48 l 48-24L 432,296z M 288,352
				l0-32 l-32-16l0-64 l-32,32l0,48 l-16,16l0,32 l 31.504,0 L 256,352L 288,352 z M 288,448l-32-16l-16-32l-32,0 l0-32 l-48,48l0,16 l 16,16l-16,32l-16,0 l0,32 l 16,16
				l 16-16l 32,0 l 16-16l 16,0 l 16-16l-32-16l 16-16l 16,16l 16,0 L 288,448z" data-tags="map_bg" />
<glyph unicode="&#xe019;" d="M 504.328,294.184c-51.504-26.704-111.576-36.736-170.928-38.040l 71.28,71.281L 504.328,294.184z M 477.256,400l-32-32
				L 590.24,368 c 7.136,9.992, 13.608,20.672, 19.408,32L 477.256,400 z M 557.248,480l-48-48L 623.6,432 c 5.5,14.958, 10.076,31.152, 13.544,48L 557.248,480 z
				 M 589.248,512l 53.12,0 c 2.298,18.819, 3.329,37.891, 3.256,56.375L 589.248,512z" data-tags="manuscript_fg" />
<glyph unicode="&#xe018;" d="M 672,640L 96,64l 224,160c 91.765,0, 186.079,18.934, 255.512,80.16L 480.088,336L 606.080,336 
				C 671.685,416.774, 689.794,545.834, 672,640z M 504.32,294.184c-51.504-26.704-111.568-36.736-170.92-38.040l 71.28,71.281L 504.32,294.184z
				 M 590.24,368L 445.256,368 l 32,32l 132.392,0 C 603.848,388.672, 597.376,377.992, 590.24,368z M 623.6,432L 509.248,432 l 48,48l 79.896,0 
				C 633.672,463.152, 629.096,446.96, 623.6,432z M 642.368,512l-53.12,0 l 56.376,56.375C 645.696,549.896, 644.664,530.816, 642.368,512z" data-tags="manuscript_bg" />
<glyph unicode="&#xe017;" d="M 592,240L 176,240 l 122.664,92L 384,268l 85.336,64L 592,240z M 496,352l 112-84L 608,436 L 496,352z M 160,436l0-168 l 112,84
				L 160,436z M 176,464l 208-156l 208,156L 176,464 z" data-tags="letter_fg" />
<glyph unicode="&#xe016;" d="M 128,496l0-288 l 512,0 L 640,496 L 128,496 z M 592,464L 469.336,372l-26.672-20L 384,308l-58.664,44l-26.672,20L 176,464L 592,464 z
				 M 160,436l 112-84L 160,268L 160,436 z M 176,240l 122.664,92L 384,268l 85.336,64L 592,240L 176,240 z M 608,268L 496,352l 112,84L 608,268 z" data-tags="letter_bg" />
<glyph unicode="&#xe007;" d="M 296,144l 216,48l0-48 L 296,144 z M 480,272L 256,172.448l0-4.56 l 224,49.783L 480,272 z M 256,207.464L 256,521.424 l 192,85.336L 448,292.8 
				L 256,207.464z M 288,417.777l-16-55.111l 24,10.667l 16,55.111L 356,448l 12-42.667L 392,416l-36,128l-36-16.001l-24-82.666l-16-7.111
				l-8-27.556L 288,417.777z M 337.143,515.047L 320,455.999l 30,13.334L 337.143,515.047z" data-tags="journal_fg" />
<glyph unicode="&#xe006;" d="M 512,496L 512,576 l-32-7.113L 480,656 L 192,528l0-384 l 64-32l 288,0 L 544,496 L 512,496 z M 256,521.424l 192,85.336L 448,292.8 L 256,207.464
				L 256,521.424 z M 256,167.888l0,4.56 L 480,272l0-54.329 L 256,167.888z M 512,144L 296,144 l 216,48L 512,144 z M 356,544l-36-16.001l-24-82.666l-16-7.111
				l-8-27.556l 16,7.111l-16-55.111l 24,10.667l 16,55.111L 356,448l 12-42.667L 392,416L 356,544z M 320,455.999l 17.143,59.048
				l 12.857-45.714L 320,455.999z" data-tags="journal_bg" />
<glyph unicode="&#xe01d;" d="M 432,416c-35.288,0-64-28.712-64-64s 28.712-64, 64-64s 64,28.712, 64,64S 467.288,416, 432,416z M 432,312
				c-22.094,0-40,17.907-40,40c0,22.094, 17.906,40, 40,40s 40-17.906, 40-40C 472,329.907, 454.094,312, 432,312z M 494,464L 176,464 l0-224 
				l 318,0 c 39.36,21.832, 66,63.8, 66,112S 533.36,442.168, 494,464z M 272,272l-32,0 L 240,432 l 32,0 L 272,272 z M 432,256c-53.016,0-96,42.984-96,96
				s 42.984,96, 96,96s 96-42.984, 96-96S 485.016,256, 432,256z M 464,496l-64,0 l0,32 l 64,0 L 464,496 z" data-tags="image_fg" />
<glyph unicode="&#xe01c;" d="M 240,432l 32,0 l0-160 l-32,0 L 240,432 z M 432,392c-22.094,0-40-17.906-40-40c0-22.093, 17.906-40, 40-40s 40,17.907, 40,40
				C 472,374.094, 454.094,392, 432,392z M 528,352c0-53.016-42.984-96-96-96s-96,42.984-96,96s 42.984,96, 96,96S 528,405.016, 528,352
				z M 496,352c0,35.288-28.712,64-64,64s-64-28.712-64-64s 28.712-64, 64-64S 496,316.712, 496,352z M 624,496l0-288 L 144,208 L 144,496 l 224,0 l0,64 l 128,0 l0-64 L 624,496 
				z M 400,496l 64,0 l0,32 l-64,0 L 400,496 z M 560,352c0,48.2-26.64,90.168-66,112L 176,464 l0-224 l 318,0 C 533.36,261.832, 560,303.8, 560,352z" data-tags="image_bg" />
<glyph unicode="&#xe001;" d="M 280,176L 128,176 L 128,464 l 32,0 l0-256 L 280,176z M 400,475.62l0-281.374 l 176,82.134L 576,557.754 L 400,475.62z M 192,232.585
				l 176-46.934L 368,471.416 l-176,46.933L 192,232.585 z" data-tags="book_fg" />
<glyph unicode="&#xe000;" d="M 608,496L 608,608 L 379.64,501.432L 160,560l0-64 l-64,0 l0-352 l 576,0 L 672,496 L 608,496 z M 128,176L 128,464 l 32,0 l0-256 l 120-32L 128,176 z
				 M 368,185.648l-176,46.936L 192,518.352 l 176-46.936L 368,185.648 z M 576,276.375L 400,194.248L 400,475.624 l 176,82.127L 576,276.375 z" data-tags="book_bg" />
<glyph unicode="&#xe013;" d="M 464,352c0-80.304-29.224-153.784-77.608-210.393l-22.704,22.704C 406.16,214.775, 432,280.184, 432,352
				c0,67.728-23.24,134.128-68.312,187.688l 22.704,22.704C 434.776,505.784, 464,432.304, 464,352z M 323.184,499.184l-23.096-23.096
				C 323.064,439.856, 336,397.32, 336,352c0-45.36-12.952-87.888-35.912-124.088l 23.096-23.096C 351.48,246.864, 368,297.504, 368,352
				C 368,406.496, 351.48,457.136, 323.184,499.184z" data-tags="audio_fg" />
<glyph unicode="&#xe012;" d="M 424.904,103.096l-38.51,38.51C 434.778,198.214, 464,271.692, 464,352
				c0,80.307-29.222,153.786-77.606,210.394l 38.51,38.51C 490.67,535.138, 528,446.492, 528,352
				C 528,257.375, 490.578,168.77, 424.904,103.096z M 432,352c0,67.727-23.24,134.13-68.311,187.689l-40.502-40.502
				C 351.482,457.134, 368,406.496, 368,352c0-54.496-16.518-105.134-44.814-147.186l 40.502-40.502C 406.158,214.778, 432,280.186, 432,352z
				 M 272,352c0-28.318-5.774-55.286-16.203-79.797l 44.291-44.291C 323.048,264.114, 336,306.638, 336,352
				c0,45.318-12.934,87.858-35.912,124.088l-44.291-44.291C 266.226,407.285, 272,380.318, 272,352z" data-tags="audio_bg" />
<glyph unicode="&#xe005;" d="M 208,576l0-448 l 352,0 L 560,576 L 208,576 z M 208,448l 10.664,32L 240,480 l 32,96l 48,0 l 48-192l-32,0 l-16,64l-58.664,0 L 240,384l-32,0 
				l 21.336,64L 208,448 z M 432,128L 208,128 l0,64 l 224,0 L 432,128 z M 560,128l-64,0 l0,64 l 64,0 L 560,128 z M 560,256L 208,256 l0,64 l 352,0 L 560,256 z M 560,384L 416,384 l0,64 l 144,0 L 560,384 z
				 M 560,512L 416,512 l0,64 l 144,0 L 560,512 z M 312,480l-40,0 l 22.856,68.568L 312,480z" data-tags="article_fg" />
<glyph unicode="&#xe004;" d="M 560,128l-64,0 l0,64 l 64,0 L 560,128 z M 432,192L 208,192 l0-64 l 224,0 L 432,192 z M 560,320L 208,320 l0-64 l 352,0 L 560,320 z M 560,448L 416,448 l0-64 l 144,0 L 560,448 z
				 M 560,576L 416,576 l0-64 l 144,0 L 560,576 z M 320,576l-48,0 l-32-96l-21.334,0 L 208,448l 21.334,0 L 208,384l 32,0 l 21.334,64L 320,448 l 16-64l 32,0 L 320,576z M 272,480
				l 22.857,68.571L 312,480L 272,480 z" data-tags="article_bg" />
<glyph unicode="&#xe00b;" d="M 464,464L 464,544 L 224,544 l0-384 l 320,0 L 544,464 L 464,464 z M 480,256L 288,256 l0,32 l 192,0 L 480,256 z M 480,320L 288,320 l0,32 l 192,0 L 480,320 z M 480,384L 288,384 
				l0,32 l 192,0 L 480,384 z" data-tags="file_fg" />
<glyph unicode="&#xe00a;" d="M 480,576L 192,576 l0-448 l 384,0 L 576,480 L 480,576z M 544,160L 224,160 L 224,544 l 240,0 l0-80 l 80,0 L 544,160 z M 288,288l 192,0 l0-32 L 288,256 L 288,288 z M 288,352
				l 192,0 l0-32 L 288,320 L 288,352 z M 288,416l 192,0 l0-32 L 288,384 L 288,416 z" data-tags="file_bg" />
<glyph unicode="&#x20;" horiz-adv-x="384" />
</font>
</defs>
</svg>
